<svg width="368" height="273" viewBox="0 0 368 273" fill="none" xmlns="http://www.w3.org/2000/svg">
<line x1="106.499" y1="84.8674" x2="108.519" y2="183.867" stroke="#161414" stroke-width="13"/>
<line x1="190.499" y1="84.8674" x2="192.519" y2="183.867" stroke="white" stroke-width="13"/>
<line x1="105.452" y1="86.9327" x2="151.075" y2="143.939" stroke="white" stroke-width="13"/>
<line x1="145.679" y1="141.032" x2="187.622" y2="81.2662" stroke="white" stroke-width="13"/>
<path d="M126.451 189.801C138.471 184.661 148.531 176.011 155.221 165.06C161.912 154.11 164.899 141.408 163.765 128.733C162.63 116.057 157.43 104.042 148.894 94.37C140.357 84.6978 128.91 77.8521 116.156 74.7914L113.014 87.0633C123.125 89.4897 132.199 94.9164 138.967 102.584C145.734 110.252 149.856 119.776 150.756 129.824C151.655 139.873 149.287 149.942 143.983 158.623C138.679 167.303 130.704 174.161 121.176 178.235L126.451 189.801Z" fill="#161414"/>
<line x1="152.5" y1="273" x2="152.5" y2="264" stroke="white"/>
<path d="M62 226H54.8182V202.727H62.3182C64.5758 202.727 66.5076 203.193 68.1136 204.125C69.7197 205.049 70.9508 206.379 71.8068 208.114C72.6629 209.841 73.0909 211.909 73.0909 214.318C73.0909 216.742 72.6591 218.83 71.7955 220.58C70.9318 222.322 69.6742 223.663 68.0227 224.602C66.3712 225.534 64.3636 226 62 226ZM57.6364 223.5H61.8182C63.7424 223.5 65.3371 223.129 66.6023 222.386C67.8674 221.644 68.8106 220.587 69.4318 219.216C70.053 217.845 70.3636 216.212 70.3636 214.318C70.3636 212.439 70.0568 210.822 69.4432 209.466C68.8295 208.102 67.9129 207.057 66.6932 206.33C65.4735 205.595 63.9545 205.227 62.1364 205.227H57.6364V223.5ZM77.8182 226V202.727H91.8636V205.227H80.6364V213.091H91.1364V215.591H80.6364V223.5H92.0455V226H77.8182ZM96.9432 226V202.727H110.989V205.227H99.7614V213.091H110.261V215.591H99.7614V223.5H111.17V226H96.9432ZM116.068 226V202.727H123.932C125.758 202.727 127.25 203.057 128.409 203.716C129.576 204.367 130.439 205.25 131 206.364C131.561 207.477 131.841 208.72 131.841 210.091C131.841 211.462 131.561 212.708 131 213.83C130.447 214.951 129.591 215.845 128.432 216.511C127.273 217.17 125.788 217.5 123.977 217.5H118.341V215H123.886C125.136 215 126.14 214.784 126.898 214.352C127.655 213.92 128.205 213.337 128.545 212.602C128.894 211.86 129.068 211.023 129.068 210.091C129.068 209.159 128.894 208.326 128.545 207.591C128.205 206.856 127.652 206.28 126.886 205.864C126.121 205.439 125.106 205.227 123.841 205.227H118.886V226H116.068Z" fill="white"/>
<path d="M153.818 202.727H157.182L165.091 222.045H165.364L173.273 202.727H176.636V226H174V208.318H173.773L166.5 226H163.955L156.682 208.318H156.455V226H153.818V202.727ZM185.105 202.727V226H182.287V202.727H185.105ZM209.21 202.727V226H206.483L193.801 207.727H193.574V226H190.756V202.727H193.483L206.21 221.045H206.438V202.727H209.21ZM222.031 226H214.849V202.727H222.349C224.607 202.727 226.539 203.193 228.145 204.125C229.751 205.049 230.982 206.379 231.838 208.114C232.694 209.841 233.122 211.909 233.122 214.318C233.122 216.742 232.69 218.83 231.827 220.58C230.963 222.322 229.705 223.663 228.054 224.602C226.402 225.534 224.395 226 222.031 226ZM217.668 223.5H221.849C223.774 223.5 225.368 223.129 226.634 222.386C227.899 221.644 228.842 220.587 229.463 219.216C230.084 217.845 230.395 216.212 230.395 214.318C230.395 212.439 230.088 210.822 229.474 209.466C228.861 208.102 227.944 207.057 226.724 206.33C225.505 205.595 223.986 205.227 222.168 205.227H217.668V223.5ZM250.577 208.545C250.44 207.394 249.887 206.5 248.918 205.864C247.948 205.227 246.759 204.909 245.349 204.909C244.319 204.909 243.418 205.076 242.645 205.409C241.88 205.742 241.281 206.201 240.849 206.784C240.425 207.367 240.213 208.03 240.213 208.773C240.213 209.394 240.361 209.928 240.656 210.375C240.959 210.814 241.346 211.182 241.815 211.477C242.285 211.765 242.777 212.004 243.293 212.193C243.808 212.375 244.281 212.523 244.713 212.636L247.077 213.273C247.683 213.432 248.357 213.652 249.099 213.932C249.849 214.212 250.565 214.595 251.247 215.08C251.937 215.557 252.505 216.17 252.952 216.92C253.399 217.67 253.622 218.591 253.622 219.682C253.622 220.939 253.293 222.076 252.634 223.091C251.982 224.106 251.027 224.913 249.77 225.511C248.52 226.11 247.001 226.409 245.213 226.409C243.546 226.409 242.103 226.14 240.884 225.602C239.671 225.064 238.717 224.314 238.02 223.352C237.33 222.39 236.94 221.273 236.849 220H239.759C239.834 220.879 240.13 221.606 240.645 222.182C241.168 222.75 241.827 223.174 242.622 223.455C243.425 223.727 244.289 223.864 245.213 223.864C246.289 223.864 247.255 223.689 248.111 223.341C248.967 222.985 249.645 222.492 250.145 221.864C250.645 221.227 250.895 220.485 250.895 219.636C250.895 218.864 250.679 218.235 250.247 217.75C249.815 217.265 249.247 216.871 248.543 216.568C247.838 216.265 247.077 216 246.259 215.773L243.395 214.955C241.577 214.432 240.137 213.686 239.077 212.716C238.016 211.746 237.486 210.477 237.486 208.909C237.486 207.606 237.838 206.47 238.543 205.5C239.255 204.523 240.209 203.765 241.406 203.227C242.611 202.682 243.955 202.409 245.44 202.409C246.94 202.409 248.274 202.678 249.44 203.216C250.607 203.746 251.531 204.473 252.213 205.398C252.902 206.322 253.266 207.371 253.304 208.545H250.577Z" fill="#161414"/>
</svg>
